<!DOCTYPE svg PUBLIC "-//W3C//DTD SVG 1.1//EN" "http://www.w3.org/Graphics/SVG/1.1/DTD/svg11.dtd">
                <svg xmlns="http://www.w3.org/2000/svg" xmlns:xlink="http://www.w3.org/1999/xlink" 
                width="1136" height="1644">
                
                <g>
                   <rect x="50" y="65"
            width="217.2" height="30"
            rx="3" ry="3"
            style="fill:#90caf9; stroke:#444; stroke-width:1" />
                   <title>const fs = require(&apos;fs&apos;)</title>
            <text x="65" y="85"
                font-family="monospace" font-size="13" fill="#222">
                <tspan x="65" y="85">const fs = require(&apos;fs&apos;)</tspan>
            </text>
                   
                   
                </g>
                <g>
                   <rect x="50" y="113.5"
            width="248.4" height="30"
            rx="3" ry="3"
            style="fill:#90caf9; stroke:#444; stroke-width:1" />
                   <title>const path = require(&apos;path&apos;)</title>
            <text x="65" y="133.5"
                font-family="monospace" font-size="13" fill="#222">
                <tspan x="65" y="133.5">const path = require(&apos;path&apos;)</tspan>
            </text>
                   
                   
                </g>
                <g>
                   <rect x="50" y="162"
            width="443.4" height="30"
            rx="3" ry="3"
            style="fill:#90caf9; stroke:#444; stroke-width:1" />
                   <title>let regex = [// 0: reset paginacije - trazi grupe od po 3 karaktera ili broja koje sledi unikode u000c
// [/\n+\d{1,3}/g, &apos;&apos;]
[/(\s*\n)(\d{1,3}|\w{1,3})(\s*\n\f)/g, &apos;$3&apos;] // 1: reset hipernacije - trazi &apos;-&apos; i /n koje prati ili ne \s
, [/-[\n*\s*]*/g, &apos;&apos;] // 2: rekonstrukcija paragrafa - trazi sve \n koje ne prati drugi \n i ne prethodi im
, [/([^\n])\n([^\n])/g, &apos;$1 $2&apos;] // 3: skidanje duplih \n
, [/\n\n/g, &apos;\n&apos;] // 4: prelom strana na tacki \f je isto kao \u000c
, [/(\.)\s*\f\s*/g, &apos;.\n&apos;] // 5: prelom strana u paragrafu
, [/\s*\f\s*/g, &apos; &apos;] // 6: prelom strana u paragrafu
, [/([^\.(\.\“)\?\!А-Ш])\n/g, &apos;$1 &apos;] // 7: formiranje html &lt;p&gt;
, [/^(.*)$/gm, &apos;&lt;p&gt;$1&lt;/p&gt;&apos;] // 8: formiranje html &lt;h1&gt;
, [/(&lt;p&gt;)([^а-ш]*)(&lt;\/p&gt;)/g, &apos;&lt;h1&gt;$2&lt;/h1&gt;&apos;]]</title>
            <text x="65" y="182"
                font-family="monospace" font-size="13" fill="#222">
                <tspan x="65" y="182">let regex = [// 0: reset paginacije - trazi grupe ...</tspan>
            </text>
                   
                   
                </g>
                <g>
                   <rect x="50" y="210.5"
            width="443.4" height="30"
            rx="3" ry="3"
            style="fill:#90caf9; stroke:#444; stroke-width:1" />
                   <title>const htmlHead = &apos;&lt;!DOCTYPE html&gt;&apos; + &apos;&lt;html lang=&quot;en&quot;&gt;&apos; + &apos;&lt;head&gt;&apos; + &apos;&lt;meta charset=&quot;UTF-8&quot;&gt;&apos; + &apos;&lt;meta name=&quot;viewport&quot; content=&quot;width=device-width, initial-scale=1.0&quot;&gt;&apos; + &apos;&lt;meta http-equiv=&quot;X-UA-Compatible&quot; content=&quot;ie=edge&quot;&gt;&apos; + &apos;&lt;link rel=&quot;stylesheet&quot; href=&quot;main.css&quot;&gt;&apos; + &apos;&lt;title&gt;OCR&lt;/title&gt;&apos; + &apos;&lt;/head&gt;&apos; + &apos;&lt;body&gt;&apos;</title>
            <text x="65" y="230.5"
                font-family="monospace" font-size="13" fill="#222">
                <tspan x="65" y="230.5">const htmlHead = &apos;&lt;!DOCTYPE html&gt;&apos; + &apos;&lt;html lang=&quot;...</tspan>
            </text>
                   
                   
                </g>
                <g>
                   <rect x="50" y="259"
            width="326.4" height="30"
            rx="3" ry="3"
            style="fill:#90caf9; stroke:#444; stroke-width:1" />
                   <title>const htmlFoot = &apos;&lt;/body&gt;&apos; + &apos;&lt;/html&gt;&apos;</title>
            <text x="65" y="279"
                font-family="monospace" font-size="13" fill="#222">
                <tspan x="65" y="279">const htmlFoot = &apos;&lt;/body&gt;&apos; + &apos;&lt;/html&gt;&apos;</tspan>
            </text>
                   
                   
                </g>
                <g>
                   <rect x="50" y="307.5"
            width="318.59999999999997" height="30"
            rx="3" ry="3"
            style="fill:#90caf9; stroke:#444; stroke-width:1" />
                   <title>let dir = &apos;./II-153244-097/test/out/&apos;</title>
            <text x="65" y="327.5"
                font-family="monospace" font-size="13" fill="#222">
                <tspan x="65" y="327.5">let dir = &apos;./II-153244-097/test/out/&apos;</tspan>
            </text>
                   
                   
                </g>
            <g>
                <rect x="50" y="371"
            width="299.6" height="30"
            style="fill:#a5d6a7; stroke:#444; stroke-width:1" />
                    
                <line x1="60" y1="371" x2="60" y2="401"
                style="fill:#a5d6a7; stroke:#444; stroke-width:1" />
                <line x1="339.6" y1="371" x2="339.6" y2="401"
                style="fill:#a5d6a7; stroke:#444; stroke-width:1" />
             
                <title>function textFormat(file, regex)</title>
            <text x="75" y="391"
                font-family="monospace" font-size="13" fill="#222">
                <tspan x="75" y="391">function textFormat(file, regex)</tspan>
            </text>
                
            </g>
                <g>
                   <rect x="87" y="419.5"
            width="443.4" height="30"
            rx="3" ry="3"
            style="fill:#90caf9; stroke:#444; stroke-width:1" />
                   <title>let rgcheckPTH = &apos;/home/dre/Documents/Programiranje/KnjigeOCR/II-153244-097/test/out/formated/&apos;</title>
            <text x="102" y="439.5"
                font-family="monospace" font-size="13" fill="#222">
                <tspan x="102" y="439.5">let rgcheckPTH = &apos;/home/dre/Documents/Programiranj...</tspan>
            </text>
                   
                   
                </g><g>

            <rect x="117" y="503"
            width="184.8" height="30"
            rx="3" ry="3"
            style="fill:#b39ddb; stroke:#444; stroke-width:1" />
            <polygon points="87,518 117,488 147,518 117,548"
            style="fill:#b39ddb; stroke:#444; stroke-width:1" />
                
            <title>i &lt; regex.length</title>
            <text x="162" y="523"
                font-family="monospace" font-size="13" fill="#222">
                <tspan x="162" y="523">i &lt; regex.length</tspan>
            </text>
            
            <text x="105.3" y="523"
        font-family="monospace" font-size="13" fill="#222">for</text>
        </g>
                <g>
                   <rect x="137" y="558"
            width="53.4" height="30"
            rx="3" ry="3"
            style="fill:#90caf9; stroke:#444; stroke-width:1" />
                   <title>i++</title>
            <text x="152" y="578"
                font-family="monospace" font-size="13" fill="#222">
                <tspan x="152" y="578">i++</tspan>
            </text>
                   
                   
                </g>
                <g>
                   <rect x="137" y="606.5"
            width="443.4" height="30"
            rx="3" ry="3"
            style="fill:#90caf9; stroke:#444; stroke-width:1" />
                   <title>let textTEMP = file.replace(regex[i][0], regex[i][1])</title>
            <text x="152" y="626.5"
                font-family="monospace" font-size="13" fill="#222">
                <tspan x="152" y="626.5">let textTEMP = file.replace(regex[i][0], regex[i][...</tspan>
            </text>
                   
                   
                </g>
                <g>
                   <rect x="137" y="655"
            width="147" height="30"
            rx="3" ry="3"
            style="fill:#90caf9; stroke:#444; stroke-width:1" />
                   <title>file = textTEMP</title>
            <text x="152" y="675"
                font-family="monospace" font-size="13" fill="#222">
                <tspan x="152" y="675">file = textTEMP</tspan>
            </text>
                   
                   
                </g>
                <g>
                   <rect x="137" y="703.5"
            width="443.4" height="30"
            rx="2" ry="2"
            style="fill:#C5E1A5; stroke:#444; stroke-width:1" />
                   <title>fs.writeFileSync(rgcheckPTH + &apos;test&apos; + i + &apos;.txt&apos;, file)</title>
            <text x="152" y="723.5"
                font-family="monospace" font-size="13" fill="#222">
                <tspan x="152" y="723.5">fs.writeFileSync(rgcheckPTH + &apos;test&apos; + i + &apos;.txt&apos;,...</tspan>
            </text>
                   
                   
                </g>
            <g>
                <rect x="87" y="752"
            width="115.80000000000001" height="30"
            rx="3" ry="3"
            style="fill:#90caf9; stroke:#444; stroke-width:1" />
                
                <line x1="202.8" y1="762" x2="207.8" y2="762"
                style="fill:#a5d6a7; stroke:#444; stroke-width:1" />
                
                <line x1="202.8" y1="772" x2="207.8" y2="772"
                style="fill:#a5d6a7; stroke:#444; stroke-width:1" />

                <path d="M207.8, 756 L223.8, 767 L207.8, 778 Z" 
        fill="#a5d6a7" stroke="#444" stroke-width="1" />
                             
                <title>return file</title>
            <text x="102" y="772"
                font-family="monospace" font-size="13" fill="#222">
                <tspan x="102" y="772">return file</tspan>
            </text>
                
            </g>
            <g>
                <rect x="50" y="815.5"
            width="245" height="30"
            style="fill:#a5d6a7; stroke:#444; stroke-width:1" />
                    
                <line x1="60" y1="815.5" x2="60" y2="845.5"
                style="fill:#a5d6a7; stroke:#444; stroke-width:1" />
                <line x1="285" y1="815.5" x2="285" y2="845.5"
                style="fill:#a5d6a7; stroke:#444; stroke-width:1" />
             
                <title>function FormatIzDir(dir)</title>
            <text x="75" y="835.5"
                font-family="monospace" font-size="13" fill="#222">
                <tspan x="75" y="835.5">function FormatIzDir(dir)</tspan>
            </text>
                
            </g>
                <g>
                   <rect x="87" y="864"
            width="186" height="30"
            rx="2" ry="2"
            style="fill:#C5E1A5; stroke:#444; stroke-width:1" />
                   <title>fs.readdir(dir, *())</title>
            <text x="102" y="884"
                font-family="monospace" font-size="13" fill="#222">
                <tspan x="102" y="884">fs.readdir(dir, *())</tspan>
            </text>
                   
                   
                </g>
            <g>
                <rect x="124" y="912.5"
            width="167" height="30"
            style="fill:#a5d6a7; stroke:#444; stroke-width:1" />
                    
                <line x1="134" y1="912.5" x2="134" y2="942.5"
                style="fill:#a5d6a7; stroke:#444; stroke-width:1" />
                <line x1="281" y1="912.5" x2="281" y2="942.5"
                style="fill:#a5d6a7; stroke:#444; stroke-width:1" />
             
                <title>(err, files) =&gt;</title>
            <text x="149" y="932.5"
                font-family="monospace" font-size="13" fill="#222">
                <tspan x="149" y="932.5">(err, files) =&gt;</tspan>
            </text>
                
            </g><g>
            <rect x="191" y="976"
            width="99" height="30"
            rx="3" ry="3"
            style="fill:#ce93d8; stroke:#444; stroke-width:1" />                
            <polygon points="161,991 191,961 221,991 191,1021"
            style="fill:#ce93d8; stroke:#444; stroke-width:1" />
            <title>(err)</title>
            <text x="236" y="996"
                font-family="monospace" font-size="13" fill="#222">
                <tspan x="236" y="996">(err)</tspan>
            </text>
            
            <text x="183.2" y="996"
        font-family="monospace" font-size="13" fill="#222">if</text> <text x="198.8" y="1022.95"
        font-family="monospace" font-size="13" fill="#222">+</text> <text x="293.9" y="989.05"
        font-family="monospace" font-size="13" fill="#222">-</text>
        </g>
                <g>
                   <rect x="211" y="1031"
            width="303" height="30"
            rx="2" ry="2"
            style="fill:#C5E1A5; stroke:#444; stroke-width:1" />
                   <title>console.log(&apos;Readdir greska &apos;, err)</title>
            <text x="226" y="1051"
                font-family="monospace" font-size="13" fill="#222">
                <tspan x="226" y="1051">console.log(&apos;Readdir greska &apos;, err)</tspan>
            </text>
                   
                   
                </g>
                <g>
                   <rect x="574" y="1031"
            width="162.6" height="30"
            rx="3" ry="3"
            style="fill:#90caf9; stroke:#444; stroke-width:1" />
                   <title>let htmlBody = &apos;&apos;</title>
            <text x="589" y="1051"
                font-family="monospace" font-size="13" fill="#222">
                <tspan x="589" y="1051">let htmlBody = &apos;&apos;</tspan>
            </text>
                   
                   
                </g>
                <g>
                   <rect x="574" y="1079.5"
            width="412.2" height="30"
            rx="2" ry="2"
            style="fill:#C5E1A5; stroke:#444; stroke-width:1" />
                   <title>console.log(`Pronadjeno ${files.length} fajlova`)</title>
            <text x="589" y="1099.5"
                font-family="monospace" font-size="13" fill="#222">
                <tspan x="589" y="1099.5">console.log(`Pronadjeno ${files.length} fajlova`)</tspan>
            </text>
                   
                   
                </g>
                <g>
                   <rect x="574" y="1128"
            width="170.4" height="30"
            rx="2" ry="2"
            style="fill:#C5E1A5; stroke:#444; stroke-width:1" />
                   <title>files.forEach(*())</title>
            <text x="589" y="1148"
                font-family="monospace" font-size="13" fill="#222">
                <tspan x="589" y="1148">files.forEach(*())</tspan>
            </text>
                   
                   
                </g>
            <g>
                <rect x="611" y="1176.5"
            width="120.2" height="30"
            style="fill:#a5d6a7; stroke:#444; stroke-width:1" />
                    
                <line x1="621" y1="1176.5" x2="621" y2="1206.5"
                style="fill:#a5d6a7; stroke:#444; stroke-width:1" />
                <line x1="721.2" y1="1176.5" x2="721.2" y2="1206.5"
                style="fill:#a5d6a7; stroke:#444; stroke-width:1" />
             
                <title>(file) =&gt;</title>
            <text x="636" y="1196.5"
                font-family="monospace" font-size="13" fill="#222">
                <tspan x="636" y="1196.5">(file) =&gt;</tspan>
            </text>
                
            </g>
                <g>
                   <rect x="648" y="1225"
            width="318.59999999999997" height="30"
            rx="3" ry="3"
            style="fill:#90caf9; stroke:#444; stroke-width:1" />
                   <title>let filePath = path.parse(dir + file)</title>
            <text x="663" y="1245"
                font-family="monospace" font-size="13" fill="#222">
                <tspan x="663" y="1245">let filePath = path.parse(dir + file)</tspan>
            </text>
                   
                   
                </g><g>
            <rect x="678" y="1288.5"
            width="247.2" height="30"
            rx="3" ry="3"
            style="fill:#ce93d8; stroke:#444; stroke-width:1" />                
            <polygon points="648,1303.5 678,1273.5 708,1303.5 678,1333.5"
            style="fill:#ce93d8; stroke:#444; stroke-width:1" />
            <title>(filePath.ext == &apos;.txt&apos;)</title>
            <text x="723" y="1308.5"
                font-family="monospace" font-size="13" fill="#222">
                <tspan x="723" y="1308.5">(filePath.ext == &apos;.txt&apos;)</tspan>
            </text>
            
            <text x="670.2" y="1308.5"
        font-family="monospace" font-size="13" fill="#222">if</text> <text x="685.8" y="1335.45"
        font-family="monospace" font-size="13" fill="#222">+</text> 
        </g>
                <g>
                   <rect x="698" y="1343.5"
            width="412.2" height="30"
            rx="3" ry="3"
            style="fill:#90caf9; stroke:#444; stroke-width:1" />
                   <title>let textIN = fs.readFileSync(dir + file, &apos;utf-8&apos;)</title>
            <text x="713" y="1363.5"
                font-family="monospace" font-size="13" fill="#222">
                <tspan x="713" y="1363.5">let textIN = fs.readFileSync(dir + file, &apos;utf-8&apos;)</tspan>
            </text>
                   
                   
                </g>
                <g>
                   <rect x="698" y="1392"
            width="170.4" height="30"
            rx="3" ry="3"
            style="fill:#90caf9; stroke:#444; stroke-width:1" />
                   <title>htmlBody += textIN</title>
            <text x="713" y="1412"
                font-family="monospace" font-size="13" fill="#222">
                <tspan x="713" y="1412">htmlBody += textIN</tspan>
            </text>
                   
                   
                </g>
                <g>
                   <rect x="574" y="1442"
            width="326.4" height="30"
            rx="3" ry="3"
            style="fill:#90caf9; stroke:#444; stroke-width:1" />
                   <title>htmlBody = textFormat(htmlBody, regex)</title>
            <text x="589" y="1462"
                font-family="monospace" font-size="13" fill="#222">
                <tspan x="589" y="1462">htmlBody = textFormat(htmlBody, regex)</tspan>
            </text>
                   
                   
                </g>
                <g>
                   <rect x="574" y="1490.5"
            width="396.59999999999997" height="30"
            rx="3" ry="3"
            style="fill:#90caf9; stroke:#444; stroke-width:1" />
                   <title>let htmlString = htmlHead + htmlBody + htmlFoot</title>
            <text x="589" y="1510.5"
                font-family="monospace" font-size="13" fill="#222">
                <tspan x="589" y="1510.5">let htmlString = htmlHead + htmlBody + htmlFoot</tspan>
            </text>
                   
                   
                </g>
                <g>
                   <rect x="574" y="1539"
            width="443.4" height="30"
            rx="2" ry="2"
            style="fill:#C5E1A5; stroke:#444; stroke-width:1" />
                   <title>fs.writeFileSync(&apos;II-153244-097/test/out/index.html&apos;, htmlString)</title>
            <text x="589" y="1559"
                font-family="monospace" font-size="13" fill="#222">
                <tspan x="589" y="1559">fs.writeFileSync(&apos;II-153244-097/test/out/index.htm...</tspan>
            </text>
                   
                   
                </g>
                <g>
                   <rect x="50" y="1589"
            width="154.8" height="30"
            rx="2" ry="2"
            style="fill:#C5E1A5; stroke:#444; stroke-width:1" />
                   <title>FormatIzDir(dir)</title>
            <text x="65" y="1609"
                font-family="monospace" font-size="13" fill="#222">
                <tspan x="65" y="1609">FormatIzDir(dir)</tspan>
            </text>
                   
                   
                </g>
            <g>
               <rect x="25" y="13.75"
            width="216.6" height="24"
            style="fill:#fff59d; stroke:#444; stroke-width:1" />
               <circle cx="25" cy="25" r="15"
        style="fill:#fff59d; stroke:#444; stroke-width:1" />
               <title>Program: source module</title>
            <text x="55" y="30"
                font-family="monospace" font-size="13" fill="#222">
                <tspan x="55" y="30">Program: source module</tspan>
            </text>
            </g>
            <g>
               <path d="M25, 40 L25 76 Q25 80
                29 80
                L42 80 "
        style="fill:none; stroke:#444; stroke-width:1" />
               <path d="M42, 77 L50, 80 L42, 83 Z" 
        fill="#333" />
            </g>
            <g>
               <path d="M25, 40 L25 124.5 Q25 128.5
                29 128.5
                L42 128.5 "
        style="fill:none; stroke:#444; stroke-width:1" />
               <path d="M42, 125.5 L50, 128.5 L42, 131.5 Z" 
        fill="#333" />
            </g>
            <g>
               <path d="M25, 40 L25 173 Q25 177
                29 177
                L42 177 "
        style="fill:none; stroke:#444; stroke-width:1" />
               <path d="M42, 174 L50, 177 L42, 180 Z" 
        fill="#333" />
            </g>
            <g>
               <path d="M25, 40 L25 221.5 Q25 225.5
                29 225.5
                L42 225.5 "
        style="fill:none; stroke:#444; stroke-width:1" />
               <path d="M42, 222.5 L50, 225.5 L42, 228.5 Z" 
        fill="#333" />
            </g>
            <g>
               <path d="M25, 40 L25 270 Q25 274
                29 274
                L42 274 "
        style="fill:none; stroke:#444; stroke-width:1" />
               <path d="M42, 271 L50, 274 L42, 277 Z" 
        fill="#333" />
            </g>
            <g>
               <path d="M25, 40 L25 318.5 Q25 322.5
                29 322.5
                L42 322.5 "
        style="fill:none; stroke:#444; stroke-width:1" />
               <path d="M42, 319.5 L50, 322.5 L42, 325.5 Z" 
        fill="#333" />
            </g>
            <g>
               <path d="M25, 40 L25 382 Q25 386
                29 386
                L42 386 "
        style="fill:none; stroke:#444; stroke-width:1" />
               <path d="M42, 383 L50, 386 L42, 389 Z" 
        fill="#333" />
            </g>
            <g>
               <path d="M68.5, 401 L68.5 430.5 Q68.5 434.5
                72.5 434.5
                L79 434.5 "
        style="fill:none; stroke:#444; stroke-width:1" />
               <path d="M79, 431.5 L87, 434.5 L79, 437.5 Z" 
        fill="#333" />
            </g>
            <g>
               <path d="M68.5, 401 L68.5 514 Q68.5 518
                72.5 518
                L79 518 "
        style="fill:none; stroke:#444; stroke-width:1" />
               <path d="M79, 515 L87, 518 L79, 521 Z" 
        fill="#333" />
            </g>
            <g>
               <path d="M117, 548 L117 569 Q117 573
                121 573
                L129 573 "
        style="fill:none; stroke:#444; stroke-width:1" />
               <path d="M129, 570 L137, 573 L129, 576 Z" 
        fill="#333" />
            </g>
            <g>
               <path d="M117, 548 L117 617.5 Q117 621.5
                121 621.5
                L129 621.5 "
        style="fill:none; stroke:#444; stroke-width:1" />
               <path d="M129, 618.5 L137, 621.5 L129, 624.5 Z" 
        fill="#333" />
            </g>
            <g>
               <path d="M117, 548 L117 666 Q117 670
                121 670
                L129 670 "
        style="fill:none; stroke:#444; stroke-width:1" />
               <path d="M129, 667 L137, 670 L129, 673 Z" 
        fill="#333" />
            </g>
            <g>
               <path d="M117, 548 L117 714.5 Q117 718.5
                121 718.5
                L129 718.5 "
        style="fill:none; stroke:#444; stroke-width:1" />
               <path d="M129, 715.5 L137, 718.5 L129, 721.5 Z" 
        fill="#333" />
            </g>
            <g>
               <path d="M580.4, 718.5 L596.4 718.5  Q600.4 718.5
                600.4 714.5
                L600.4 476 Q600.4 468
                596.4 468
                L125 468  Q117 468
                117 472
                L117 480"
        style="fill:none; stroke:#444; stroke-width:1" />
               <path d="M114, 480 L117, 488 L120, 480 Z" 
        fill="#333" />
            </g>
            <g>
               <path d="M68.5, 401 L68.5 763 Q68.5 767
                72.5 767
                L79 767 "
        style="fill:none; stroke:#444; stroke-width:1" />
               <path d="M79, 764 L87, 767 L79, 770 Z" 
        fill="#333" />
            </g>
            <g>
               <path d="M25, 40 L25 826.5 Q25 830.5
                29 830.5
                L42 830.5 "
        style="fill:none; stroke:#444; stroke-width:1" />
               <path d="M42, 827.5 L50, 830.5 L42, 833.5 Z" 
        fill="#333" />
            </g>
            <g>
               <path d="M68.5, 845.5 L68.5 875 Q68.5 879
                72.5 879
                L79 879 "
        style="fill:none; stroke:#444; stroke-width:1" />
               <path d="M79, 876 L87, 879 L79, 882 Z" 
        fill="#333" />
            </g>
            <g>
               <path d="M105.5, 894 L105.5 923.5 Q105.5 927.5
                109.5 927.5
                L124 927.5 "
        style="fill:none; stroke:#444; stroke-width:1" />
               false
            </g>
            <g>
               <path d="M142.5, 942.5 L142.5 987 Q142.5 991
                146.5 991
                L153 991 "
        style="fill:none; stroke:#444; stroke-width:1" />
               <path d="M153, 988 L161, 991 L153, 994 Z" 
        fill="#333" />
            </g>
            <g>
               <path d="M191, 1021 L191 1042 Q191 1046
                195 1046
                L203 1046 "
        style="fill:none; stroke:#444; stroke-width:1" />
               <path d="M203, 1043 L211, 1046 L203, 1049 Z" 
        fill="#333" />
            </g>
            <g>
               <path d="M290, 991 L550 991  Q554 991
                554 995
                L554 1038 Q554 1046
                558 1046
                L566 1046 "
        style="fill:none; stroke:#444; stroke-width:1" />
               <path d="M566, 1043 L574, 1046 L566, 1049 Z" 
        fill="#333" />
            </g>
            <g>
               <path d="M290, 991 L550 991  Q554 991
                554 995
                L554 1086.5 Q554 1094.5
                558 1094.5
                L566 1094.5 "
        style="fill:none; stroke:#444; stroke-width:1" />
               <path d="M566, 1091.5 L574, 1094.5 L566, 1097.5 Z" 
        fill="#333" />
            </g>
            <g>
               <path d="M290, 991 L550 991  Q554 991
                554 995
                L554 1135 Q554 1143
                558 1143
                L566 1143 "
        style="fill:none; stroke:#444; stroke-width:1" />
               <path d="M566, 1140 L574, 1143 L566, 1146 Z" 
        fill="#333" />
            </g>
            <g>
               <path d="M592.5, 1158 L592.5 1187.5 Q592.5 1191.5
                596.5 1191.5
                L611 1191.5 "
        style="fill:none; stroke:#444; stroke-width:1" />
               false
            </g>
            <g>
               <path d="M629.5, 1206.5 L629.5 1236 Q629.5 1240
                633.5 1240
                L640 1240 "
        style="fill:none; stroke:#444; stroke-width:1" />
               <path d="M640, 1237 L648, 1240 L640, 1243 Z" 
        fill="#333" />
            </g>
            <g>
               <path d="M629.5, 1206.5 L629.5 1299.5 Q629.5 1303.5
                633.5 1303.5
                L640 1303.5 "
        style="fill:none; stroke:#444; stroke-width:1" />
               <path d="M640, 1300.5 L648, 1303.5 L640, 1306.5 Z" 
        fill="#333" />
            </g>
            <g>
               <path d="M678, 1333.5 L678 1354.5 Q678 1358.5
                682 1358.5
                L690 1358.5 "
        style="fill:none; stroke:#444; stroke-width:1" />
               <path d="M690, 1355.5 L698, 1358.5 L690, 1361.5 Z" 
        fill="#333" />
            </g>
            <g>
               <path d="M678, 1333.5 L678 1403 Q678 1407
                682 1407
                L690 1407 "
        style="fill:none; stroke:#444; stroke-width:1" />
               <path d="M690, 1404 L698, 1407 L690, 1410 Z" 
        fill="#333" />
            </g>
            <g>
               <path d="M290, 991 L550 991  Q554 991
                554 995
                L554 1449 Q554 1457
                558 1457
                L566 1457 "
        style="fill:none; stroke:#444; stroke-width:1" />
               <path d="M566, 1454 L574, 1457 L566, 1460 Z" 
        fill="#333" />
            </g>
            <g>
               <path d="M290, 991 L550 991  Q554 991
                554 995
                L554 1497.5 Q554 1505.5
                558 1505.5
                L566 1505.5 "
        style="fill:none; stroke:#444; stroke-width:1" />
               <path d="M566, 1502.5 L574, 1505.5 L566, 1508.5 Z" 
        fill="#333" />
            </g>
            <g>
               <path d="M290, 991 L550 991  Q554 991
                554 995
                L554 1546 Q554 1554
                558 1554
                L566 1554 "
        style="fill:none; stroke:#444; stroke-width:1" />
               <path d="M566, 1551 L574, 1554 L566, 1557 Z" 
        fill="#333" />
            </g>
            <g>
               <path d="M25, 40 L25 1600 Q25 1604
                29 1604
                L42 1604 "
        style="fill:none; stroke:#444; stroke-width:1" />
               <path d="M42, 1601 L50, 1604 L42, 1607 Z" 
        fill="#333" />
            </g>
            </svg>