<!DOCTYPE svg PUBLIC "-//W3C//DTD SVG 1.1//EN" "http://www.w3.org/Graphics/SVG/1.1/DTD/svg11.dtd">
                <svg xmlns="http://www.w3.org/2000/svg" xmlns:xlink="http://www.w3.org/1999/xlink" 
                width="906" height="1877">
                
                <g>
                   <rect x="50" y="65"
            width="295.2" height="30"
            rx="3" ry="3"
            style="fill:#90caf9; stroke:#444; stroke-width:1" />
                   <title>const request = require(&apos;request&apos;)</title>
            <text x="65" y="85"
                font-family="monospace" font-size="13" fill="#222">
                <tspan x="65" y="85">const request = require(&apos;request&apos;)</tspan>
            </text>
                   
                   
                </g>
                <g>
                   <rect x="50" y="113.5"
            width="248.4" height="30"
            rx="3" ry="3"
            style="fill:#90caf9; stroke:#444; stroke-width:1" />
                   <title>const path = require(&apos;path&apos;)</title>
            <text x="65" y="133.5"
                font-family="monospace" font-size="13" fill="#222">
                <tspan x="65" y="133.5">const path = require(&apos;path&apos;)</tspan>
            </text>
                   
                   
                </g>
                <g>
                   <rect x="50" y="162"
            width="217.2" height="30"
            rx="3" ry="3"
            style="fill:#90caf9; stroke:#444; stroke-width:1" />
                   <title>const fs = require(&apos;fs&apos;)</title>
            <text x="65" y="182"
                font-family="monospace" font-size="13" fill="#222">
                <tspan x="65" y="182">const fs = require(&apos;fs&apos;)</tspan>
            </text>
                   
                   
                </g>
                <g>
                   <rect x="50" y="210.5"
            width="264" height="30"
            rx="3" ry="3"
            style="fill:#90caf9; stroke:#444; stroke-width:1" />
                   <title>const URL = require(&apos;url&apos;).URL</title>
            <text x="65" y="230.5"
                font-family="monospace" font-size="13" fill="#222">
                <tspan x="65" y="230.5">const URL = require(&apos;url&apos;).URL</tspan>
            </text>
                   
                   
                </g>
                <g>
                   <rect x="50" y="259"
            width="123.6" height="30"
            rx="2" ry="2"
            style="fill:#C5E1A5; stroke:#444; stroke-width:1" />
                   <title>loopKnjige()</title>
            <text x="65" y="279"
                font-family="monospace" font-size="13" fill="#222">
                <tspan x="65" y="279">loopKnjige()</tspan>
            </text>
                   
                   
                </g>
            <g>
                <rect x="50" y="322.5"
            width="213.79999999999998" height="30"
            style="fill:#a5d6a7; stroke:#444; stroke-width:1" />
                    
                <line x1="60" y1="322.5" x2="60" y2="352.5"
                style="fill:#a5d6a7; stroke:#444; stroke-width:1" />
                <line x1="253.79999999999995" y1="322.5" x2="253.79999999999995" y2="352.5"
                style="fill:#a5d6a7; stroke:#444; stroke-width:1" />
             
                <title>function loopKnjige()</title>
            <text x="75" y="342.5"
                font-family="monospace" font-size="13" fill="#222">
                <tspan x="75" y="342.5">function loopKnjige()</tspan>
            </text>
                
            </g>
                <g>
                   <rect x="87" y="371"
            width="100.2" height="30"
            rx="3" ry="3"
            style="fill:#90caf9; stroke:#444; stroke-width:1" />
                   <title>let i = 1</title>
            <text x="102" y="391"
                font-family="monospace" font-size="13" fill="#222">
                <tspan x="102" y="391">let i = 1</tspan>
            </text>
                   
                   
                </g>
                <g>
                   <rect x="87" y="419.5"
            width="147" height="30"
            rx="3" ry="3"
            style="fill:#90caf9; stroke:#444; stroke-width:1" />
                   <title>let kraj = true</title>
            <text x="102" y="439.5"
                font-family="monospace" font-size="13" fill="#222">
                <tspan x="102" y="439.5">let kraj = true</tspan>
            </text>
                   
                   
                </g><g>

            <rect x="117" y="503"
            width="91.2" height="30"
            rx="3" ry="3"
            style="fill:#b39ddb; stroke:#444; stroke-width:1" />
            <polygon points="87,518 117,488 147,518 117,548"
            style="fill:#b39ddb; stroke:#444; stroke-width:1" />
                
            <title>kraj</title>
            <text x="162" y="523"
                font-family="monospace" font-size="13" fill="#222">
                <tspan x="162" y="523">kraj</tspan>
            </text>
            
            <text x="97.5" y="523"
        font-family="monospace" font-size="13" fill="#222">while</text>
        </g>
                <g>
                   <rect x="137" y="558"
            width="443.4" height="30"
            rx="3" ry="3"
            style="fill:#90caf9; stroke:#444; stroke-width:1" />
                   <title>let img_url = URL(&apos;http://digitalna.nb.rs/wb/NBS/Knjige/Srpska_knjizevnost_u_100knjiga/II-153244-097?pageIndex=00005&apos;)</title>
            <text x="152" y="578"
                font-family="monospace" font-size="13" fill="#222">
                <tspan x="152" y="578">let img_url = URL(&apos;http://digitalna.nb.rs/wb/NBS/K...</tspan>
            </text>
                   
                   
                </g>
                <g>
                   <rect x="137" y="606.5"
            width="287.4" height="30"
            rx="3" ry="3"
            style="fill:#90caf9; stroke:#444; stroke-width:1" />
                   <title>let query = &apos;0000&apos; + i.toString()</title>
            <text x="152" y="626.5"
                font-family="monospace" font-size="13" fill="#222">
                <tspan x="152" y="626.5">let query = &apos;0000&apos; + i.toString()</tspan>
            </text>
                   
                   
                </g>
                <g>
                   <rect x="137" y="655"
            width="443.4" height="30"
            rx="2" ry="2"
            style="fill:#C5E1A5; stroke:#444; stroke-width:1" />
                   <title>img_url.searchParams.set(&apos;pageIndex&apos;, query.slice(-5))</title>
            <text x="152" y="675"
                font-family="monospace" font-size="13" fill="#222">
                <tspan x="152" y="675">img_url.searchParams.set(&apos;pageIndex&apos;, query.slice(...</tspan>
            </text>
                   
                   
                </g>
                <g>
                   <rect x="137" y="703.5"
            width="170.4" height="30"
            rx="2" ry="2"
            style="fill:#C5E1A5; stroke:#444; stroke-width:1" />
                   <title>KnjigeOCR(img_url)</title>
            <text x="152" y="723.5"
                font-family="monospace" font-size="13" fill="#222">
                <tspan x="152" y="723.5">KnjigeOCR(img_url)</tspan>
            </text>
                   
                   
                </g>
                <g>
                   <rect x="137" y="752"
            width="108" height="30"
            rx="2" ry="2"
            style="fill:#C5E1A5; stroke:#444; stroke-width:1" />
                   <title>.then(*())</title>
            <text x="152" y="772"
                font-family="monospace" font-size="13" fill="#222">
                <tspan x="152" y="772">.then(*())</tspan>
            </text>
                   <circle cx="143" cy="776" r="4"
        style="fill:#ede7f6; stroke:#444; stroke-width:1" />
                   
                </g>
            <g>
                <rect x="174" y="800.5"
            width="128" height="30"
            style="fill:#a5d6a7; stroke:#444; stroke-width:1" />
                    
                <line x1="184" y1="800.5" x2="184" y2="830.5"
                style="fill:#a5d6a7; stroke:#444; stroke-width:1" />
                <line x1="292" y1="800.5" x2="292" y2="830.5"
                style="fill:#a5d6a7; stroke:#444; stroke-width:1" />
             
                <title>function()</title>
            <text x="199" y="820.5"
                font-family="monospace" font-size="13" fill="#222">
                <tspan x="199" y="820.5">function()</tspan>
            </text>
                
            </g>
                <g>
                   <rect x="211" y="849"
            width="53.4" height="30"
            rx="3" ry="3"
            style="fill:#90caf9; stroke:#444; stroke-width:1" />
                   <title>i++</title>
            <text x="226" y="869"
                font-family="monospace" font-size="13" fill="#222">
                <tspan x="226" y="869">i++</tspan>
            </text>
                   
                   
                </g>
                <g>
                   <rect x="137" y="897.5"
            width="115.8" height="30"
            rx="2" ry="2"
            style="fill:#C5E1A5; stroke:#444; stroke-width:1" />
                   <title>.catch(*())</title>
            <text x="152" y="917.5"
                font-family="monospace" font-size="13" fill="#222">
                <tspan x="152" y="917.5">.catch(*())</tspan>
            </text>
                   <circle cx="143" cy="921.5" r="4"
        style="fill:#ede7f6; stroke:#444; stroke-width:1" />
                   
                </g>
            <g>
                <rect x="174" y="946"
            width="128" height="30"
            style="fill:#a5d6a7; stroke:#444; stroke-width:1" />
                    
                <line x1="184" y1="946" x2="184" y2="976"
                style="fill:#a5d6a7; stroke:#444; stroke-width:1" />
                <line x1="292" y1="946" x2="292" y2="976"
                style="fill:#a5d6a7; stroke:#444; stroke-width:1" />
             
                <title>function()</title>
            <text x="199" y="966"
                font-family="monospace" font-size="13" fill="#222">
                <tspan x="199" y="966">function()</tspan>
            </text>
                
            </g>
                <g>
                   <rect x="211" y="994.5"
            width="123.6" height="30"
            rx="3" ry="3"
            style="fill:#90caf9; stroke:#444; stroke-width:1" />
                   <title>kraj = false</title>
            <text x="226" y="1014.5"
                font-family="monospace" font-size="13" fill="#222">
                <tspan x="226" y="1014.5">kraj = false</tspan>
            </text>
                   
                   
                </g>
            <g>
                <rect x="50" y="1058"
            width="260.6" height="30"
            style="fill:#a5d6a7; stroke:#444; stroke-width:1" />
                    
                <line x1="60" y1="1058" x2="60" y2="1088"
                style="fill:#a5d6a7; stroke:#444; stroke-width:1" />
                <line x1="300.6" y1="1058" x2="300.6" y2="1088"
                style="fill:#a5d6a7; stroke:#444; stroke-width:1" />
             
                <title>function KnjigeOCR(img_url)</title>
            <text x="75" y="1078"
                font-family="monospace" font-size="13" fill="#222">
                <tspan x="75" y="1078">function KnjigeOCR(img_url)</tspan>
            </text>
                
            </g>
            <g>
                <rect x="87" y="1106.5"
            width="435.59999999999997" height="30"
            rx="3" ry="3"
            style="fill:#90caf9; stroke:#444; stroke-width:1" />
                
                <line x1="522.5999999999999" y1="1116.5" x2="527.5999999999999" y2="1116.5"
                style="fill:#a5d6a7; stroke:#444; stroke-width:1" />
                
                <line x1="522.5999999999999" y1="1126.5" x2="527.5999999999999" y2="1126.5"
                style="fill:#a5d6a7; stroke:#444; stroke-width:1" />

                <path d="M527.5999999999999, 1110.5 L543.5999999999999, 1121.5 L527.5999999999999, 1132.5 Z" 
        fill="#a5d6a7" stroke="#444" stroke-width="1" />
                             
                <title>return new Promise(function (resolve, reject) {
  request(img_url.href, (error, response) =&gt; {
    console.log(`Stranica ${img_url.searchParams} - greska ${error} - statusCode ${response.statusCode}`);

    if (!error &amp;&amp; response.statusCode == 200) {
      let img_name = path.parse(img_url.pathname.slice(-13) + &apos;/&apos; + img_url.searchParams.get(&apos;pageIndex&apos;) + &apos;.jpg&apos;);
      request(img_url.href).on(&apos;error&apos;, function (err) {
        console.log(err);
      }).pipe(fs.createWriteStream(path.format(img_name))); // OCRocitavanje(path.format(img_name))

      resolve();
    } else {
      reject();
    }
  });
})</title>
            <text x="102" y="1126.5"
                font-family="monospace" font-size="13" fill="#222">
                <tspan x="102" y="1126.5">return new Promise(function (resolve, reject) {
  ...</tspan>
            </text>
                
            </g>
                <g>
                   <rect x="124" y="1155"
            width="435.59999999999997" height="30"
            rx="3" ry="3"
            style="fill:#90caf9; stroke:#444; stroke-width:1" />
                   <title>new Promise(function (resolve, reject) {
  request(img_url.href, (error, response) =&gt; {
    console.log(`Stranica ${img_url.searchParams} - greska ${error} - statusCode ${response.statusCode}`);

    if (!error &amp;&amp; response.statusCode == 200) {
      let img_name = path.parse(img_url.pathname.slice(-13) + &apos;/&apos; + img_url.searchParams.get(&apos;pageIndex&apos;) + &apos;.jpg&apos;);
      request(img_url.href).on(&apos;error&apos;, function (err) {
        console.log(err);
      }).pipe(fs.createWriteStream(path.format(img_name))); // OCRocitavanje(path.format(img_name))

      resolve();
    } else {
      reject();
    }
  });
})</title>
            <text x="139" y="1175"
                font-family="monospace" font-size="13" fill="#222">
                <tspan x="139" y="1175">new Promise(function (resolve, reject) {
  request...</tspan>
            </text>
                   
                   
                </g>
            <g>
                <rect x="124" y="1218.5"
            width="245" height="30"
            style="fill:#a5d6a7; stroke:#444; stroke-width:1" />
                    
                <line x1="134" y1="1218.5" x2="134" y2="1248.5"
                style="fill:#a5d6a7; stroke:#444; stroke-width:1" />
                <line x1="359" y1="1218.5" x2="359" y2="1248.5"
                style="fill:#a5d6a7; stroke:#444; stroke-width:1" />
             
                <title>function(resolve, reject)</title>
            <text x="149" y="1238.5"
                font-family="monospace" font-size="13" fill="#222">
                <tspan x="149" y="1238.5">function(resolve, reject)</tspan>
            </text>
                
            </g>
                <g>
                   <rect x="161" y="1267"
            width="232.79999999999998" height="30"
            rx="2" ry="2"
            style="fill:#C5E1A5; stroke:#444; stroke-width:1" />
                   <title>request(img_url.href, *())</title>
            <text x="176" y="1287"
                font-family="monospace" font-size="13" fill="#222">
                <tspan x="176" y="1287">request(img_url.href, *())</tspan>
            </text>
                   
                   
                </g>
            <g>
                <rect x="198" y="1315.5"
            width="206" height="30"
            style="fill:#a5d6a7; stroke:#444; stroke-width:1" />
                    
                <line x1="208" y1="1315.5" x2="208" y2="1345.5"
                style="fill:#a5d6a7; stroke:#444; stroke-width:1" />
                <line x1="394" y1="1315.5" x2="394" y2="1345.5"
                style="fill:#a5d6a7; stroke:#444; stroke-width:1" />
             
                <title>(error, response) =&gt;</title>
            <text x="223" y="1335.5"
                font-family="monospace" font-size="13" fill="#222">
                <tspan x="223" y="1335.5">(error, response) =&gt;</tspan>
            </text>
                
            </g>
                <g>
                   <rect x="235" y="1364"
            width="69" height="30"
            rx="3" ry="3"
            style="fill:#90caf9; stroke:#444; stroke-width:1" />
                   <title>error</title>
            <text x="250" y="1384"
                font-family="monospace" font-size="13" fill="#222">
                <tspan x="250" y="1384">error</tspan>
            </text>
                   
                   
                </g>
                <g>
                   <rect x="235" y="1412.5"
            width="443.4" height="30"
            rx="2" ry="2"
            style="fill:#C5E1A5; stroke:#444; stroke-width:1" />
                   <title>console.log(`Stranica ${img_url.searchParams} - greska ${error} - statusCode ${response.statusCode}`)</title>
            <text x="250" y="1432.5"
                font-family="monospace" font-size="13" fill="#222">
                <tspan x="250" y="1432.5">console.log(`Stranica ${img_url.searchParams} - gr...</tspan>
            </text>
                   
                   
                </g><g>
            <rect x="265" y="1476"
            width="356.4" height="30"
            rx="3" ry="3"
            style="fill:#ce93d8; stroke:#444; stroke-width:1" />                
            <polygon points="235,1491 265,1461 295,1491 265,1521"
            style="fill:#ce93d8; stroke:#444; stroke-width:1" />
            <title>(!error &amp;&amp; response.statusCode == 200)</title>
            <text x="310" y="1496"
                font-family="monospace" font-size="13" fill="#222">
                <tspan x="310" y="1496">(!error &amp;&amp; response.statusCode == 200)</tspan>
            </text>
            
            <text x="257.2" y="1496"
        font-family="monospace" font-size="13" fill="#222">if</text> <text x="272.8" y="1522.95"
        font-family="monospace" font-size="13" fill="#222">+</text> <text x="625.3" y="1489.05"
        font-family="monospace" font-size="13" fill="#222">-</text>
        </g>
                <g>
                   <rect x="285" y="1531"
            width="443.4" height="30"
            rx="3" ry="3"
            style="fill:#90caf9; stroke:#444; stroke-width:1" />
                   <title>let img_name = path.parse(img_url.pathname.slice(-13) + &apos;/&apos; + img_url.searchParams.get(&apos;pageIndex&apos;) + &apos;.jpg&apos;)</title>
            <text x="300" y="1551"
                font-family="monospace" font-size="13" fill="#222">
                <tspan x="300" y="1551">let img_name = path.parse(img_url.pathname.slice(-...</tspan>
            </text>
                   
                   
                </g>
                <g>
                   <rect x="285" y="1579.5"
            width="193.79999999999998" height="30"
            rx="2" ry="2"
            style="fill:#C5E1A5; stroke:#444; stroke-width:1" />
                   <title>request(img_url.href)</title>
            <text x="300" y="1599.5"
                font-family="monospace" font-size="13" fill="#222">
                <tspan x="300" y="1599.5">request(img_url.href)</tspan>
            </text>
                   
                   
                </g>
                <g>
                   <rect x="285" y="1628"
            width="162.6" height="30"
            rx="2" ry="2"
            style="fill:#C5E1A5; stroke:#444; stroke-width:1" />
                   <title>.on(&apos;error&apos;, *())</title>
            <text x="300" y="1648"
                font-family="monospace" font-size="13" fill="#222">
                <tspan x="300" y="1648">.on(&apos;error&apos;, *())</tspan>
            </text>
                   <circle cx="291" cy="1652" r="4"
        style="fill:#ede7f6; stroke:#444; stroke-width:1" />
                   
                </g>
            <g>
                <rect x="322" y="1676.5"
            width="151.39999999999998" height="30"
            style="fill:#a5d6a7; stroke:#444; stroke-width:1" />
                    
                <line x1="332" y1="1676.5" x2="332" y2="1706.5"
                style="fill:#a5d6a7; stroke:#444; stroke-width:1" />
                <line x1="463.4" y1="1676.5" x2="463.4" y2="1706.5"
                style="fill:#a5d6a7; stroke:#444; stroke-width:1" />
             
                <title>function(err)</title>
            <text x="347" y="1696.5"
                font-family="monospace" font-size="13" fill="#222">
                <tspan x="347" y="1696.5">function(err)</tspan>
            </text>
                
            </g>
                <g>
                   <rect x="359" y="1725"
            width="154.8" height="30"
            rx="2" ry="2"
            style="fill:#C5E1A5; stroke:#444; stroke-width:1" />
                   <title>console.log(err)</title>
            <text x="374" y="1745"
                font-family="monospace" font-size="13" fill="#222">
                <tspan x="374" y="1745">console.log(err)</tspan>
            </text>
                   
                   
                </g>
                <g>
                   <rect x="285" y="1773.5"
            width="420" height="30"
            rx="2" ry="2"
            style="fill:#C5E1A5; stroke:#444; stroke-width:1" />
                   <title>.pipe(fs.createWriteStream(path.format(img_name)))</title>
            <text x="300" y="1793.5"
                font-family="monospace" font-size="13" fill="#222">
                <tspan x="300" y="1793.5">.pipe(fs.createWriteStream(path.format(img_name)))</tspan>
            </text>
                   <circle cx="291" cy="1797.5" r="4"
        style="fill:#ede7f6; stroke:#444; stroke-width:1" />
                   
                </g>
                <g>
                   <rect x="285" y="1822"
            width="100.2" height="30"
            rx="2" ry="2"
            style="fill:#C5E1A5; stroke:#444; stroke-width:1" />
                   <title>resolve()</title>
            <text x="300" y="1842"
                font-family="monospace" font-size="13" fill="#222">
                <tspan x="300" y="1842">resolve()</tspan>
            </text>
                   
                   
                </g>
                <g>
                   <rect x="788.4" y="1531"
            width="92.4" height="30"
            rx="2" ry="2"
            style="fill:#C5E1A5; stroke:#444; stroke-width:1" />
                   <title>reject()</title>
            <text x="803.4" y="1551"
                font-family="monospace" font-size="13" fill="#222">
                <tspan x="803.4" y="1551">reject()</tspan>
            </text>
                   
                   
                </g>
            <g>
               <rect x="25" y="13.75"
            width="216.6" height="24"
            style="fill:#fff59d; stroke:#444; stroke-width:1" />
               <circle cx="25" cy="25" r="15"
        style="fill:#fff59d; stroke:#444; stroke-width:1" />
               <title>Program: source module</title>
            <text x="55" y="30"
                font-family="monospace" font-size="13" fill="#222">
                <tspan x="55" y="30">Program: source module</tspan>
            </text>
            </g>
            <g>
               <path d="M25, 40 L25 76 Q25 80
                29 80
                L42 80 "
        style="fill:none; stroke:#444; stroke-width:1" />
               <path d="M42, 77 L50, 80 L42, 83 Z" 
        fill="#333" />
            </g>
            <g>
               <path d="M25, 40 L25 124.5 Q25 128.5
                29 128.5
                L42 128.5 "
        style="fill:none; stroke:#444; stroke-width:1" />
               <path d="M42, 125.5 L50, 128.5 L42, 131.5 Z" 
        fill="#333" />
            </g>
            <g>
               <path d="M25, 40 L25 173 Q25 177
                29 177
                L42 177 "
        style="fill:none; stroke:#444; stroke-width:1" />
               <path d="M42, 174 L50, 177 L42, 180 Z" 
        fill="#333" />
            </g>
            <g>
               <path d="M25, 40 L25 221.5 Q25 225.5
                29 225.5
                L42 225.5 "
        style="fill:none; stroke:#444; stroke-width:1" />
               <path d="M42, 222.5 L50, 225.5 L42, 228.5 Z" 
        fill="#333" />
            </g>
            <g>
               <path d="M25, 40 L25 270 Q25 274
                29 274
                L42 274 "
        style="fill:none; stroke:#444; stroke-width:1" />
               <path d="M42, 271 L50, 274 L42, 277 Z" 
        fill="#333" />
            </g>
            <g>
               <path d="M25, 40 L25 333.5 Q25 337.5
                29 337.5
                L42 337.5 "
        style="fill:none; stroke:#444; stroke-width:1" />
               <path d="M42, 334.5 L50, 337.5 L42, 340.5 Z" 
        fill="#333" />
            </g>
            <g>
               <path d="M68.5, 352.5 L68.5 382 Q68.5 386
                72.5 386
                L79 386 "
        style="fill:none; stroke:#444; stroke-width:1" />
               <path d="M79, 383 L87, 386 L79, 389 Z" 
        fill="#333" />
            </g>
            <g>
               <path d="M68.5, 352.5 L68.5 430.5 Q68.5 434.5
                72.5 434.5
                L79 434.5 "
        style="fill:none; stroke:#444; stroke-width:1" />
               <path d="M79, 431.5 L87, 434.5 L79, 437.5 Z" 
        fill="#333" />
            </g>
            <g>
               <path d="M68.5, 352.5 L68.5 514 Q68.5 518
                72.5 518
                L79 518 "
        style="fill:none; stroke:#444; stroke-width:1" />
               <path d="M79, 515 L87, 518 L79, 521 Z" 
        fill="#333" />
            </g>
            <g>
               <path d="M117, 548 L117 569 Q117 573
                121 573
                L129 573 "
        style="fill:none; stroke:#444; stroke-width:1" />
               <path d="M129, 570 L137, 573 L129, 576 Z" 
        fill="#333" />
            </g>
            <g>
               <path d="M117, 548 L117 617.5 Q117 621.5
                121 621.5
                L129 621.5 "
        style="fill:none; stroke:#444; stroke-width:1" />
               <path d="M129, 618.5 L137, 621.5 L129, 624.5 Z" 
        fill="#333" />
            </g>
            <g>
               <path d="M117, 548 L117 666 Q117 670
                121 670
                L129 670 "
        style="fill:none; stroke:#444; stroke-width:1" />
               <path d="M129, 667 L137, 670 L129, 673 Z" 
        fill="#333" />
            </g>
            <g>
               <path d="M117, 548 L117 714.5 Q117 718.5
                121 718.5
                L129 718.5 "
        style="fill:none; stroke:#444; stroke-width:1" />
               <path d="M129, 715.5 L137, 718.5 L129, 721.5 Z" 
        fill="#333" />
            </g>
            <g>
               <path d="M117, 548 L117 763 Q117 767
                121 767
                L129 767 "
        style="fill:none; stroke:#444; stroke-width:1" />
               <path d="M129, 764 L137, 767 L129, 770 Z" 
        fill="#333" />
            </g>
            <g>
               <path d="M155.5, 782 L155.5 811.5 Q155.5 815.5
                159.5 815.5
                L174 815.5 "
        style="fill:none; stroke:#444; stroke-width:1" />
               false
            </g>
            <g>
               <path d="M192.5, 830.5 L192.5 860 Q192.5 864
                196.5 864
                L203 864 "
        style="fill:none; stroke:#444; stroke-width:1" />
               <path d="M203, 861 L211, 864 L203, 867 Z" 
        fill="#333" />
            </g>
            <g>
               <path d="M117, 548 L117 908.5 Q117 912.5
                121 912.5
                L129 912.5 "
        style="fill:none; stroke:#444; stroke-width:1" />
               <path d="M129, 909.5 L137, 912.5 L129, 915.5 Z" 
        fill="#333" />
            </g>
            <g>
               <path d="M155.5, 927.5 L155.5 957 Q155.5 961
                159.5 961
                L174 961 "
        style="fill:none; stroke:#444; stroke-width:1" />
               false
            </g>
            <g>
               <path d="M192.5, 976 L192.5 1005.5 Q192.5 1009.5
                196.5 1009.5
                L203 1009.5 "
        style="fill:none; stroke:#444; stroke-width:1" />
               <path d="M203, 1006.5 L211, 1009.5 L203, 1012.5 Z" 
        fill="#333" />
            </g>
            <g>
               <path d="M334.6, 1009.5 L596.4 1009.5  Q600.4 1009.5
                600.4 1005.5
                L600.4 476 Q600.4 468
                596.4 468
                L125 468  Q117 468
                117 472
                L117 480"
        style="fill:none; stroke:#444; stroke-width:1" />
               <path d="M114, 480 L117, 488 L120, 480 Z" 
        fill="#333" />
            </g>
            <g>
               <path d="M25, 40 L25 1069 Q25 1073
                29 1073
                L42 1073 "
        style="fill:none; stroke:#444; stroke-width:1" />
               <path d="M42, 1070 L50, 1073 L42, 1076 Z" 
        fill="#333" />
            </g>
            <g>
               <path d="M68.5, 1088 L68.5 1117.5 Q68.5 1121.5
                72.5 1121.5
                L79 1121.5 "
        style="fill:none; stroke:#444; stroke-width:1" />
               <path d="M79, 1118.5 L87, 1121.5 L79, 1124.5 Z" 
        fill="#333" />
            </g>
            <g>
               <path d="M105.5, 1136.5 L105.5 1166 Q105.5 1170
                109.5 1170
                L116 1170 "
        style="fill:none; stroke:#444; stroke-width:1" />
               <path d="M116, 1167 L124, 1170 L116, 1173 Z" 
        fill="#333" />
            </g>
            <g>
               <path d="M105.5, 1136.5 L105.5 1229.5 Q105.5 1233.5
                109.5 1233.5
                L116 1233.5 "
        style="fill:none; stroke:#444; stroke-width:1" />
               <path d="M116, 1230.5 L124, 1233.5 L116, 1236.5 Z" 
        fill="#333" />
            </g>
            <g>
               <path d="M142.5, 1248.5 L142.5 1278 Q142.5 1282
                146.5 1282
                L153 1282 "
        style="fill:none; stroke:#444; stroke-width:1" />
               <path d="M153, 1279 L161, 1282 L153, 1285 Z" 
        fill="#333" />
            </g>
            <g>
               <path d="M179.5, 1297 L179.5 1326.5 Q179.5 1330.5
                183.5 1330.5
                L198 1330.5 "
        style="fill:none; stroke:#444; stroke-width:1" />
               false
            </g>
            <g>
               <path d="M216.5, 1345.5 L216.5 1375 Q216.5 1379
                220.5 1379
                L227 1379 "
        style="fill:none; stroke:#444; stroke-width:1" />
               <path d="M227, 1376 L235, 1379 L227, 1382 Z" 
        fill="#333" />
            </g>
            <g>
               <path d="M216.5, 1345.5 L216.5 1423.5 Q216.5 1427.5
                220.5 1427.5
                L227 1427.5 "
        style="fill:none; stroke:#444; stroke-width:1" />
               <path d="M227, 1424.5 L235, 1427.5 L227, 1430.5 Z" 
        fill="#333" />
            </g>
            <g>
               <path d="M216.5, 1345.5 L216.5 1487 Q216.5 1491
                220.5 1491
                L227 1491 "
        style="fill:none; stroke:#444; stroke-width:1" />
               <path d="M227, 1488 L235, 1491 L227, 1494 Z" 
        fill="#333" />
            </g>
            <g>
               <path d="M265, 1521 L265 1542 Q265 1546
                269 1546
                L277 1546 "
        style="fill:none; stroke:#444; stroke-width:1" />
               <path d="M277, 1543 L285, 1546 L277, 1549 Z" 
        fill="#333" />
            </g>
            <g>
               <path d="M265, 1521 L265 1590.5 Q265 1594.5
                269 1594.5
                L277 1594.5 "
        style="fill:none; stroke:#444; stroke-width:1" />
               <path d="M277, 1591.5 L285, 1594.5 L277, 1597.5 Z" 
        fill="#333" />
            </g>
            <g>
               <path d="M265, 1521 L265 1639 Q265 1643
                269 1643
                L277 1643 "
        style="fill:none; stroke:#444; stroke-width:1" />
               <path d="M277, 1640 L285, 1643 L277, 1646 Z" 
        fill="#333" />
            </g>
            <g>
               <path d="M303.5, 1658 L303.5 1687.5 Q303.5 1691.5
                307.5 1691.5
                L322 1691.5 "
        style="fill:none; stroke:#444; stroke-width:1" />
               false
            </g>
            <g>
               <path d="M340.5, 1706.5 L340.5 1736 Q340.5 1740
                344.5 1740
                L351 1740 "
        style="fill:none; stroke:#444; stroke-width:1" />
               <path d="M351, 1737 L359, 1740 L351, 1743 Z" 
        fill="#333" />
            </g>
            <g>
               <path d="M265, 1521 L265 1784.5 Q265 1788.5
                269 1788.5
                L277 1788.5 "
        style="fill:none; stroke:#444; stroke-width:1" />
               <path d="M277, 1785.5 L285, 1788.5 L277, 1791.5 Z" 
        fill="#333" />
            </g>
            <g>
               <path d="M265, 1521 L265 1833 Q265 1837
                269 1837
                L277 1837 "
        style="fill:none; stroke:#444; stroke-width:1" />
               <path d="M277, 1834 L285, 1837 L277, 1840 Z" 
        fill="#333" />
            </g>
            <g>
               <path d="M621.4, 1491 L764.4 1491  Q768.4 1491
                768.4 1495
                L768.4 1538 Q768.4 1546
                772.4 1546
                L780.4 1546 "
        style="fill:none; stroke:#444; stroke-width:1" />
               <path d="M780.4, 1543 L788.4, 1546 L780.4, 1549 Z" 
        fill="#333" />
            </g>
            </svg>