<!DOCTYPE svg PUBLIC "-//W3C//DTD SVG 1.1//EN" "http://www.w3.org/Graphics/SVG/1.1/DTD/svg11.dtd">
                <svg xmlns="http://www.w3.org/2000/svg" xmlns:xlink="http://www.w3.org/1999/xlink" 
                width="680" height="2650">
                
                <g>
                   <rect x="50" y="65"
            width="295.2" height="30"
            rx="3" ry="3"
            style="fill:#90caf9; stroke:#444; stroke-width:1" />
                   <title>const {...} = require(&apos;./DirList&apos;)</title>
            <text x="65" y="85"
                font-family="monospace" font-size="13" fill="#222">
                <tspan x="65" y="85">const {...} = require(&apos;./DirList&apos;)</tspan>
            </text>
                   
                   
                </g>
                <g>
                   <rect x="87" y="113.5"
            width="84.6" height="30"
            rx="2" ry="2"
            style="fill:#90caf9; stroke:#444; stroke-width:1" />
                   <title>DirList</title>
            <text x="102" y="133.5"
                font-family="monospace" font-size="13" fill="#222">
                <tspan x="102" y="133.5">DirList</tspan>
            </text>
                   
                   
                </g>
                <g>
                   <rect x="50" y="162"
            width="318.59999999999997" height="30"
            rx="3" ry="3"
            style="fill:#90caf9; stroke:#444; stroke-width:1" />
                   <title>const {...} = require(&apos;./napraviDir&apos;)</title>
            <text x="65" y="182"
                font-family="monospace" font-size="13" fill="#222">
                <tspan x="65" y="182">const {...} = require(&apos;./napraviDir&apos;)</tspan>
            </text>
                   
                   
                </g>
                <g>
                   <rect x="87" y="210.5"
            width="108" height="30"
            rx="2" ry="2"
            style="fill:#90caf9; stroke:#444; stroke-width:1" />
                   <title>napraviDir</title>
            <text x="102" y="230.5"
                font-family="monospace" font-size="13" fill="#222">
                <tspan x="102" y="230.5">napraviDir</tspan>
            </text>
                   
                   
                </g>
                <g>
                   <rect x="50" y="259"
            width="248.4" height="30"
            rx="3" ry="3"
            style="fill:#90caf9; stroke:#444; stroke-width:1" />
                   <title>const path = require(&apos;path&apos;)</title>
            <text x="65" y="279"
                font-family="monospace" font-size="13" fill="#222">
                <tspan x="65" y="279">const path = require(&apos;path&apos;)</tspan>
            </text>
                   
                   
                </g>
                <g>
                   <rect x="50" y="307.5"
            width="248.4" height="30"
            rx="3" ry="3"
            style="fill:#90caf9; stroke:#444; stroke-width:1" />
                   <title>const jimp = require(&apos;jimp&apos;)</title>
            <text x="65" y="327.5"
                font-family="monospace" font-size="13" fill="#222">
                <tspan x="65" y="327.5">const jimp = require(&apos;jimp&apos;)</tspan>
            </text>
                   
                   
                </g>
                <g>
                   <rect x="50" y="356"
            width="310.8" height="30"
            rx="3" ry="3"
            style="fill:#90caf9; stroke:#444; stroke-width:1" />
                   <title>const {...} = require(&apos;./konstante&apos;)</title>
            <text x="65" y="376"
                font-family="monospace" font-size="13" fill="#222">
                <tspan x="65" y="376">const {...} = require(&apos;./konstante&apos;)</tspan>
            </text>
                   
                   
                </g>
                <g>
                   <rect x="87" y="404.5"
            width="108" height="30"
            rx="2" ry="2"
            style="fill:#90caf9; stroke:#444; stroke-width:1" />
                   <title>listKnjige</title>
            <text x="102" y="424.5"
                font-family="monospace" font-size="13" fill="#222">
                <tspan x="102" y="424.5">listKnjige</tspan>
            </text>
                   
                   
                </g>
                <g>
                   <rect x="87" y="453"
            width="84.6" height="30"
            rx="2" ry="2"
            style="fill:#90caf9; stroke:#444; stroke-width:1" />
                   <title>ROOTDIR</title>
            <text x="102" y="473"
                font-family="monospace" font-size="13" fill="#222">
                <tspan x="102" y="473">ROOTDIR</tspan>
            </text>
                   
                   
                </g>
                <g>
                   <rect x="50" y="501.5"
            width="443.4" height="30"
            rx="3" ry="3"
            style="fill:#90caf9; stroke:#444; stroke-width:1" />
                   <title>let dir = path.join(ROOTDIR, listKnjige.dirName, &apos;in&apos;)</title>
            <text x="65" y="521.5"
                font-family="monospace" font-size="13" fill="#222">
                <tspan x="65" y="521.5">let dir = path.join(ROOTDIR, listKnjige.dirName, &apos;...</tspan>
            </text>
                   
                   
                </g>
                <g>
                   <rect x="50" y="550"
            width="443.4" height="30"
            rx="3" ry="3"
            style="fill:#90caf9; stroke:#444; stroke-width:1" />
                   <title>let outhpath = path.join(ROOTDIR, listKnjige.dirName, &apos;split&apos;)</title>
            <text x="65" y="570"
                font-family="monospace" font-size="13" fill="#222">
                <tspan x="65" y="570">let outhpath = path.join(ROOTDIR, listKnjige.dirNa...</tspan>
            </text>
                   
                   
                </g>
                <g>
                   <rect x="50" y="598.5"
            width="186" height="30"
            rx="2" ry="2"
            style="fill:#C5E1A5; stroke:#444; stroke-width:1" />
                   <title>napraviDir(outhpath)</title>
            <text x="65" y="618.5"
                font-family="monospace" font-size="13" fill="#222">
                <tspan x="65" y="618.5">napraviDir(outhpath)</tspan>
            </text>
                   
                   
                </g>
                <g>
                   <rect x="50" y="647"
            width="240.6" height="30"
            rx="3" ry="3"
            style="fill:#90caf9; stroke:#444; stroke-width:1" />
                   <title>let fileList = DirList(dir)</title>
            <text x="65" y="667"
                font-family="monospace" font-size="13" fill="#222">
                <tspan x="65" y="667">let fileList = DirList(dir)</tspan>
            </text>
                   
                   
                </g>
                <g>
                   <rect x="50" y="695.5"
            width="100.2" height="30"
            rx="2" ry="2"
            style="fill:#C5E1A5; stroke:#444; stroke-width:1" />
                   <title>IMGcrop()</title>
            <text x="65" y="715.5"
                font-family="monospace" font-size="13" fill="#222">
                <tspan x="65" y="715.5">IMGcrop()</tspan>
            </text>
                   
                   
                </g>
            <g>
                <rect x="50" y="759"
            width="190.4" height="30"
            style="fill:#a5d6a7; stroke:#444; stroke-width:1" />
                    
                <line x1="60" y1="759" x2="60" y2="789"
                style="fill:#a5d6a7; stroke:#444; stroke-width:1" />
                <line x1="230.4" y1="759" x2="230.4" y2="789"
                style="fill:#a5d6a7; stroke:#444; stroke-width:1" />
             
                <title>function IMGcrop()</title>
            <text x="75" y="779"
                font-family="monospace" font-size="13" fill="#222">
                <tspan x="75" y="779">function IMGcrop()</tspan>
            </text>
                
            </g><g>

            <rect x="117" y="842.5"
            width="208.2" height="30"
            rx="3" ry="3"
            style="fill:#b39ddb; stroke:#444; stroke-width:1" />
            <polygon points="87,857.5 117,827.5 147,857.5 117,887.5"
            style="fill:#b39ddb; stroke:#444; stroke-width:1" />
                
            <title>i &lt; fileList.length</title>
            <text x="162" y="862.5"
                font-family="monospace" font-size="13" fill="#222">
                <tspan x="162" y="862.5">i &lt; fileList.length</tspan>
            </text>
            
            <text x="105.3" y="862.5"
        font-family="monospace" font-size="13" fill="#222">for</text>
        </g>
                <g>
                   <rect x="137" y="897.5"
            width="53.4" height="30"
            rx="3" ry="3"
            style="fill:#90caf9; stroke:#444; stroke-width:1" />
                   <title>i++</title>
            <text x="152" y="917.5"
                font-family="monospace" font-size="13" fill="#222">
                <tspan x="152" y="917.5">i++</tspan>
            </text>
                   
                   
                </g>
                <g>
                   <rect x="137" y="946"
            width="318.59999999999997" height="30"
            rx="3" ry="3"
            style="fill:#90caf9; stroke:#444; stroke-width:1" />
                   <title>let imgPTH = path.format(fileList[i])</title>
            <text x="152" y="966"
                font-family="monospace" font-size="13" fill="#222">
                <tspan x="152" y="966">let imgPTH = path.format(fileList[i])</tspan>
            </text>
                   
                   
                </g>
                <g>
                   <rect x="137" y="994.5"
            width="279.6" height="30"
            rx="3" ry="3"
            style="fill:#90caf9; stroke:#444; stroke-width:1" />
                   <title>let exten = path.extname(imgPTH)</title>
            <text x="152" y="1014.5"
                font-family="monospace" font-size="13" fill="#222">
                <tspan x="152" y="1014.5">let exten = path.extname(imgPTH)</tspan>
            </text>
                   
                   
                </g>
                <g>
                   <rect x="137" y="1043"
            width="357.59999999999997" height="30"
            rx="3" ry="3"
            style="fill:#90caf9; stroke:#444; stroke-width:1" />
                   <title>let imgname = path.basename(imgPTH, exten)</title>
            <text x="152" y="1063"
                font-family="monospace" font-size="13" fill="#222">
                <tspan x="152" y="1063">let imgname = path.basename(imgPTH, exten)</tspan>
            </text>
                   
                   
                </g>
                <g>
                   <rect x="137" y="1091.5"
            width="162.6" height="30"
            rx="2" ry="2"
            style="fill:#C5E1A5; stroke:#444; stroke-width:1" />
                   <title>jimp.read(imgPTH)</title>
            <text x="152" y="1111.5"
                font-family="monospace" font-size="13" fill="#222">
                <tspan x="152" y="1111.5">jimp.read(imgPTH)</tspan>
            </text>
                   
                   
                </g>
                <g>
                   <rect x="137" y="1140"
            width="108" height="30"
            rx="2" ry="2"
            style="fill:#C5E1A5; stroke:#444; stroke-width:1" />
                   <title>.then(*())</title>
            <text x="152" y="1160"
                font-family="monospace" font-size="13" fill="#222">
                <tspan x="152" y="1160">.then(*())</tspan>
            </text>
                   <circle cx="143" cy="1164" r="4"
        style="fill:#ede7f6; stroke:#444; stroke-width:1" />
                   
                </g>
            <g>
                <rect x="174" y="1188.5"
            width="128" height="30"
            style="fill:#a5d6a7; stroke:#444; stroke-width:1" />
                    
                <line x1="184" y1="1188.5" x2="184" y2="1218.5"
                style="fill:#a5d6a7; stroke:#444; stroke-width:1" />
                <line x1="292" y1="1188.5" x2="292" y2="1218.5"
                style="fill:#a5d6a7; stroke:#444; stroke-width:1" />
             
                <title>(image) =&gt;</title>
            <text x="199" y="1208.5"
                font-family="monospace" font-size="13" fill="#222">
                <tspan x="199" y="1208.5">(image) =&gt;</tspan>
            </text>
                
            </g>
                <g>
                   <rect x="211" y="1237"
            width="232.79999999999998" height="30"
            rx="3" ry="3"
            style="fill:#90caf9; stroke:#444; stroke-width:1" />
                   <title>let w = image.bitmap.width</title>
            <text x="226" y="1257"
                font-family="monospace" font-size="13" fill="#222">
                <tspan x="226" y="1257">let w = image.bitmap.width</tspan>
            </text>
                   
                   
                </g>
                <g>
                   <rect x="211" y="1285.5"
            width="240.6" height="30"
            rx="3" ry="3"
            style="fill:#90caf9; stroke:#444; stroke-width:1" />
                   <title>let h = image.bitmap.height</title>
            <text x="226" y="1305.5"
                font-family="monospace" font-size="13" fill="#222">
                <tspan x="226" y="1305.5">let h = image.bitmap.height</tspan>
            </text>
                   
                   
                </g>
                <g>
                   <rect x="211" y="1334"
            width="147" height="30"
            rx="3" ry="3"
            style="fill:#90caf9; stroke:#444; stroke-width:1" />
                   <title>let mid = w / 2</title>
            <text x="226" y="1354"
                font-family="monospace" font-size="13" fill="#222">
                <tspan x="226" y="1354">let mid = w / 2</tspan>
            </text>
                   
                   
                </g>
                <g>
                   <rect x="211" y="1382.5"
            width="37.8" height="30"
            rx="3" ry="3"
            style="fill:#90caf9; stroke:#444; stroke-width:1" />
                   <title>i</title>
            <text x="226" y="1402.5"
                font-family="monospace" font-size="13" fill="#222">
                <tspan x="226" y="1402.5">i</tspan>
            </text>
                   
                   
                </g>
                <g>
                   <rect x="211" y="1431"
            width="76.8" height="30"
            rx="3" ry="3"
            style="fill:#90caf9; stroke:#444; stroke-width:1" />
                   <title>imgPTH</title>
            <text x="226" y="1451"
                font-family="monospace" font-size="13" fill="#222">
                <tspan x="226" y="1451">imgPTH</tspan>
            </text>
                   
                   
                </g>
                <g>
                   <rect x="211" y="1479.5"
            width="37.8" height="30"
            rx="3" ry="3"
            style="fill:#90caf9; stroke:#444; stroke-width:1" />
                   <title>w</title>
            <text x="226" y="1499.5"
                font-family="monospace" font-size="13" fill="#222">
                <tspan x="226" y="1499.5">w</tspan>
            </text>
                   
                   
                </g>
                <g>
                   <rect x="211" y="1528"
            width="37.8" height="30"
            rx="3" ry="3"
            style="fill:#90caf9; stroke:#444; stroke-width:1" />
                   <title>h</title>
            <text x="226" y="1548"
                font-family="monospace" font-size="13" fill="#222">
                <tspan x="226" y="1548">h</tspan>
            </text>
                   
                   
                </g>
                <g>
                   <rect x="211" y="1576.5"
            width="53.4" height="30"
            rx="3" ry="3"
            style="fill:#90caf9; stroke:#444; stroke-width:1" />
                   <title>mid</title>
            <text x="226" y="1596.5"
                font-family="monospace" font-size="13" fill="#222">
                <tspan x="226" y="1596.5">mid</tspan>
            </text>
                   
                   
                </g>
                <g>
                   <rect x="211" y="1625"
            width="443.4" height="30"
            rx="2" ry="2"
            style="fill:#C5E1A5; stroke:#444; stroke-width:1" />
                   <title>console.log(`${i}: ${imgPTH} | w - ${w} | h - ${h} | mid - ${mid}`)</title>
            <text x="226" y="1645"
                font-family="monospace" font-size="13" fill="#222">
                <tspan x="226" y="1645">console.log(`${i}: ${imgPTH} | w - ${w} | h - ${h}...</tspan>
            </text>
                   
                   
                </g>
                <g>
                   <rect x="211" y="1673.5"
            width="443.4" height="30"
            rx="3" ry="3"
            style="fill:#90caf9; stroke:#444; stroke-width:1" />
                   <title>let progres = DirList(outhpath).length / 2 / fileList.length * 100</title>
            <text x="226" y="1693.5"
                font-family="monospace" font-size="13" fill="#222">
                <tspan x="226" y="1693.5">let progres = DirList(outhpath).length / 2 / fileL...</tspan>
            </text>
                   
                   
                </g>
                <g>
                   <rect x="211" y="1722"
            width="37.8" height="30"
            rx="3" ry="3"
            style="fill:#90caf9; stroke:#444; stroke-width:1" />
                   <title>i</title>
            <text x="226" y="1742"
                font-family="monospace" font-size="13" fill="#222">
                <tspan x="226" y="1742">i</tspan>
            </text>
                   
                   
                </g>
                <g>
                   <rect x="211" y="1770.5"
            width="170.4" height="30"
            rx="2" ry="2"
            style="fill:#C5E1A5; stroke:#444; stroke-width:1" />
                   <title>progres.toFixed(2)</title>
            <text x="226" y="1790.5"
                font-family="monospace" font-size="13" fill="#222">
                <tspan x="226" y="1790.5">progres.toFixed(2)</tspan>
            </text>
                   
                   
                </g>
                <g>
                   <rect x="211" y="1819"
            width="443.4" height="30"
            rx="2" ry="2"
            style="fill:#C5E1A5; stroke:#444; stroke-width:1" />
                   <title>console.log(`Progres (${i}): ${progres.toFixed(2)}%`)</title>
            <text x="226" y="1839"
                font-family="monospace" font-size="13" fill="#222">
                <tspan x="226" y="1839">console.log(`Progres (${i}): ${progres.toFixed(2)}...</tspan>
            </text>
                   
                   
                </g>
                <g>
                   <rect x="211" y="1867.5"
            width="217.2" height="30"
            rx="3" ry="3"
            style="fill:#90caf9; stroke:#444; stroke-width:1" />
                   <title>let imgL = image.clone()</title>
            <text x="226" y="1887.5"
                font-family="monospace" font-size="13" fill="#222">
                <tspan x="226" y="1887.5">let imgL = image.clone()</tspan>
            </text>
                   
                   
                </g>
                <g>
                   <rect x="211" y="1916"
            width="217.2" height="30"
            rx="3" ry="3"
            style="fill:#90caf9; stroke:#444; stroke-width:1" />
                   <title>let imgD = image.clone()</title>
            <text x="226" y="1936"
                font-family="monospace" font-size="13" fill="#222">
                <tspan x="226" y="1936">let imgD = image.clone()</tspan>
            </text>
                   
                   
                </g>
                <g>
                   <rect x="211" y="1964.5"
            width="209.4" height="30"
            rx="2" ry="2"
            style="fill:#C5E1A5; stroke:#444; stroke-width:1" />
                   <title>imgL.crop(0, 0, mid, h)</title>
            <text x="226" y="1984.5"
                font-family="monospace" font-size="13" fill="#222">
                <tspan x="226" y="1984.5">imgL.crop(0, 0, mid, h)</tspan>
            </text>
                   
                   
                </g>
                <g>
                   <rect x="211" y="2013"
            width="131.39999999999998" height="30"
            rx="2" ry="2"
            style="fill:#C5E1A5; stroke:#444; stroke-width:1" />
                   <title>.quality(100)</title>
            <text x="226" y="2033"
                font-family="monospace" font-size="13" fill="#222">
                <tspan x="226" y="2033">.quality(100)</tspan>
            </text>
                   <circle cx="217" cy="2037" r="4"
        style="fill:#ede7f6; stroke:#444; stroke-width:1" />
                   
                </g>
                <g>
                   <rect x="211" y="2061.5"
            width="420" height="30"
            rx="2" ry="2"
            style="fill:#C5E1A5; stroke:#444; stroke-width:1" />
                   <title>.write(path.join(outhpath, imgname + &apos;a&apos; + exten))</title>
            <text x="226" y="2081.5"
                font-family="monospace" font-size="13" fill="#222">
                <tspan x="226" y="2081.5">.write(path.join(outhpath, imgname + &apos;a&apos; + exten))</tspan>
            </text>
                   <circle cx="217" cy="2085.5" r="4"
        style="fill:#ede7f6; stroke:#444; stroke-width:1" />
                   
                </g>
                <g>
                   <rect x="211" y="2110"
            width="225" height="30"
            rx="2" ry="2"
            style="fill:#C5E1A5; stroke:#444; stroke-width:1" />
                   <title>imgD.crop(mid, 0, mid, h)</title>
            <text x="226" y="2130"
                font-family="monospace" font-size="13" fill="#222">
                <tspan x="226" y="2130">imgD.crop(mid, 0, mid, h)</tspan>
            </text>
                   
                   
                </g>
                <g>
                   <rect x="211" y="2158.5"
            width="131.39999999999998" height="30"
            rx="2" ry="2"
            style="fill:#C5E1A5; stroke:#444; stroke-width:1" />
                   <title>.quality(100)</title>
            <text x="226" y="2178.5"
                font-family="monospace" font-size="13" fill="#222">
                <tspan x="226" y="2178.5">.quality(100)</tspan>
            </text>
                   <circle cx="217" cy="2182.5" r="4"
        style="fill:#ede7f6; stroke:#444; stroke-width:1" />
                   
                </g>
                <g>
                   <rect x="211" y="2207"
            width="420" height="30"
            rx="2" ry="2"
            style="fill:#C5E1A5; stroke:#444; stroke-width:1" />
                   <title>.write(path.join(outhpath, imgname + &apos;b&apos; + exten))</title>
            <text x="226" y="2227"
                font-family="monospace" font-size="13" fill="#222">
                <tspan x="226" y="2227">.write(path.join(outhpath, imgname + &apos;b&apos; + exten))</tspan>
            </text>
                   <circle cx="217" cy="2231" r="4"
        style="fill:#ede7f6; stroke:#444; stroke-width:1" />
                   
                </g>
                <g>
                   <rect x="137" y="2255.5"
            width="115.8" height="30"
            rx="2" ry="2"
            style="fill:#C5E1A5; stroke:#444; stroke-width:1" />
                   <title>.catch(*())</title>
            <text x="152" y="2275.5"
                font-family="monospace" font-size="13" fill="#222">
                <tspan x="152" y="2275.5">.catch(*())</tspan>
            </text>
                   <circle cx="143" cy="2279.5" r="4"
        style="fill:#ede7f6; stroke:#444; stroke-width:1" />
                   
                </g>
            <g>
                <rect x="174" y="2304"
            width="112.4" height="30"
            style="fill:#a5d6a7; stroke:#444; stroke-width:1" />
                    
                <line x1="184" y1="2304" x2="184" y2="2334"
                style="fill:#a5d6a7; stroke:#444; stroke-width:1" />
                <line x1="276.4" y1="2304" x2="276.4" y2="2334"
                style="fill:#a5d6a7; stroke:#444; stroke-width:1" />
             
                <title>(err) =&gt;</title>
            <text x="199" y="2324"
                font-family="monospace" font-size="13" fill="#222">
                <tspan x="199" y="2324">(err) =&gt;</tspan>
            </text>
                
            </g>
                <g>
                   <rect x="211" y="2352.5"
            width="37.8" height="30"
            rx="3" ry="3"
            style="fill:#90caf9; stroke:#444; stroke-width:1" />
                   <title>i</title>
            <text x="226" y="2372.5"
                font-family="monospace" font-size="13" fill="#222">
                <tspan x="226" y="2372.5">i</tspan>
            </text>
                   
                   
                </g>
                <g>
                   <rect x="211" y="2401"
            width="53.4" height="30"
            rx="3" ry="3"
            style="fill:#90caf9; stroke:#444; stroke-width:1" />
                   <title>err</title>
            <text x="226" y="2421"
                font-family="monospace" font-size="13" fill="#222">
                <tspan x="226" y="2421">err</tspan>
            </text>
                   
                   
                </g>
                <g>
                   <rect x="211" y="2449.5"
            width="365.4" height="30"
            rx="2" ry="2"
            style="fill:#C5E1A5; stroke:#444; stroke-width:1" />
                   <title>console.error(`Slika ${i} greska : ${err}`)</title>
            <text x="226" y="2469.5"
                font-family="monospace" font-size="13" fill="#222">
                <tspan x="226" y="2469.5">console.error(`Slika ${i} greska : ${err}`)</tspan>
            </text>
                   
                   
                </g>
                <g>
                   <rect x="50" y="2498"
            width="225" height="30"
            rx="3" ry="3"
            style="fill:#90caf9; stroke:#444; stroke-width:1" />
                   <title>exports.IMGcrop = IMGcrop</title>
            <text x="65" y="2518"
                font-family="monospace" font-size="13" fill="#222">
                <tspan x="65" y="2518">exports.IMGcrop = IMGcrop</tspan>
            </text>
                   
                   
                </g>
                <g>
                   <rect x="50" y="2546.5"
            width="240.6" height="30"
            rx="3" ry="3"
            style="fill:#90caf9; stroke:#444; stroke-width:1" />
                   <title>exports.fileList = fileList</title>
            <text x="65" y="2566.5"
                font-family="monospace" font-size="13" fill="#222">
                <tspan x="65" y="2566.5">exports.fileList = fileList</tspan>
            </text>
                   
                   
                </g>
                <g>
                   <rect x="50" y="2595"
            width="240.6" height="30"
            rx="3" ry="3"
            style="fill:#90caf9; stroke:#444; stroke-width:1" />
                   <title>exports.outhpath = outhpath</title>
            <text x="65" y="2615"
                font-family="monospace" font-size="13" fill="#222">
                <tspan x="65" y="2615">exports.outhpath = outhpath</tspan>
            </text>
                   
                   
                </g>
            <g>
               <rect x="25" y="13.75"
            width="216.6" height="24"
            style="fill:#fff59d; stroke:#444; stroke-width:1" />
               <circle cx="25" cy="25" r="15"
        style="fill:#fff59d; stroke:#444; stroke-width:1" />
               <title>Program: source module</title>
            <text x="55" y="30"
                font-family="monospace" font-size="13" fill="#222">
                <tspan x="55" y="30">Program: source module</tspan>
            </text>
            </g>
            <g>
               <path d="M25, 40 L25 76 Q25 80
                29 80
                L42 80 "
        style="fill:none; stroke:#444; stroke-width:1" />
               <path d="M42, 77 L50, 80 L42, 83 Z" 
        fill="#333" />
            </g>
            <g>
               <path d="M68.5, 95 L68.5 124.5 Q68.5 128.5
                72.5 128.5
                L87 128.5 "
        style="fill:none; stroke:#444; stroke-width:1" />
               false
            </g>
            <g>
               <path d="M25, 40 L25 173 Q25 177
                29 177
                L42 177 "
        style="fill:none; stroke:#444; stroke-width:1" />
               <path d="M42, 174 L50, 177 L42, 180 Z" 
        fill="#333" />
            </g>
            <g>
               <path d="M68.5, 192 L68.5 221.5 Q68.5 225.5
                72.5 225.5
                L87 225.5 "
        style="fill:none; stroke:#444; stroke-width:1" />
               false
            </g>
            <g>
               <path d="M25, 40 L25 270 Q25 274
                29 274
                L42 274 "
        style="fill:none; stroke:#444; stroke-width:1" />
               <path d="M42, 271 L50, 274 L42, 277 Z" 
        fill="#333" />
            </g>
            <g>
               <path d="M25, 40 L25 318.5 Q25 322.5
                29 322.5
                L42 322.5 "
        style="fill:none; stroke:#444; stroke-width:1" />
               <path d="M42, 319.5 L50, 322.5 L42, 325.5 Z" 
        fill="#333" />
            </g>
            <g>
               <path d="M25, 40 L25 367 Q25 371
                29 371
                L42 371 "
        style="fill:none; stroke:#444; stroke-width:1" />
               <path d="M42, 368 L50, 371 L42, 374 Z" 
        fill="#333" />
            </g>
            <g>
               <path d="M68.5, 386 L68.5 415.5 Q68.5 419.5
                72.5 419.5
                L87 419.5 "
        style="fill:none; stroke:#444; stroke-width:1" />
               false
            </g>
            <g>
               <path d="M68.5, 386 L68.5 464 Q68.5 468
                72.5 468
                L87 468 "
        style="fill:none; stroke:#444; stroke-width:1" />
               false
            </g>
            <g>
               <path d="M25, 40 L25 512.5 Q25 516.5
                29 516.5
                L42 516.5 "
        style="fill:none; stroke:#444; stroke-width:1" />
               <path d="M42, 513.5 L50, 516.5 L42, 519.5 Z" 
        fill="#333" />
            </g>
            <g>
               <path d="M25, 40 L25 561 Q25 565
                29 565
                L42 565 "
        style="fill:none; stroke:#444; stroke-width:1" />
               <path d="M42, 562 L50, 565 L42, 568 Z" 
        fill="#333" />
            </g>
            <g>
               <path d="M25, 40 L25 609.5 Q25 613.5
                29 613.5
                L42 613.5 "
        style="fill:none; stroke:#444; stroke-width:1" />
               <path d="M42, 610.5 L50, 613.5 L42, 616.5 Z" 
        fill="#333" />
            </g>
            <g>
               <path d="M25, 40 L25 658 Q25 662
                29 662
                L42 662 "
        style="fill:none; stroke:#444; stroke-width:1" />
               <path d="M42, 659 L50, 662 L42, 665 Z" 
        fill="#333" />
            </g>
            <g>
               <path d="M25, 40 L25 706.5 Q25 710.5
                29 710.5
                L42 710.5 "
        style="fill:none; stroke:#444; stroke-width:1" />
               <path d="M42, 707.5 L50, 710.5 L42, 713.5 Z" 
        fill="#333" />
            </g>
            <g>
               <path d="M25, 40 L25 770 Q25 774
                29 774
                L42 774 "
        style="fill:none; stroke:#444; stroke-width:1" />
               <path d="M42, 771 L50, 774 L42, 777 Z" 
        fill="#333" />
            </g>
            <g>
               <path d="M68.5, 789 L68.5 853.5 Q68.5 857.5
                72.5 857.5
                L79 857.5 "
        style="fill:none; stroke:#444; stroke-width:1" />
               <path d="M79, 854.5 L87, 857.5 L79, 860.5 Z" 
        fill="#333" />
            </g>
            <g>
               <path d="M117, 887.5 L117 908.5 Q117 912.5
                121 912.5
                L129 912.5 "
        style="fill:none; stroke:#444; stroke-width:1" />
               <path d="M129, 909.5 L137, 912.5 L129, 915.5 Z" 
        fill="#333" />
            </g>
            <g>
               <path d="M117, 887.5 L117 957 Q117 961
                121 961
                L129 961 "
        style="fill:none; stroke:#444; stroke-width:1" />
               <path d="M129, 958 L137, 961 L129, 964 Z" 
        fill="#333" />
            </g>
            <g>
               <path d="M117, 887.5 L117 1005.5 Q117 1009.5
                121 1009.5
                L129 1009.5 "
        style="fill:none; stroke:#444; stroke-width:1" />
               <path d="M129, 1006.5 L137, 1009.5 L129, 1012.5 Z" 
        fill="#333" />
            </g>
            <g>
               <path d="M117, 887.5 L117 1054 Q117 1058
                121 1058
                L129 1058 "
        style="fill:none; stroke:#444; stroke-width:1" />
               <path d="M129, 1055 L137, 1058 L129, 1061 Z" 
        fill="#333" />
            </g>
            <g>
               <path d="M117, 887.5 L117 1102.5 Q117 1106.5
                121 1106.5
                L129 1106.5 "
        style="fill:none; stroke:#444; stroke-width:1" />
               <path d="M129, 1103.5 L137, 1106.5 L129, 1109.5 Z" 
        fill="#333" />
            </g>
            <g>
               <path d="M117, 887.5 L117 1151 Q117 1155
                121 1155
                L129 1155 "
        style="fill:none; stroke:#444; stroke-width:1" />
               <path d="M129, 1152 L137, 1155 L129, 1158 Z" 
        fill="#333" />
            </g>
            <g>
               <path d="M155.5, 1170 L155.5 1199.5 Q155.5 1203.5
                159.5 1203.5
                L174 1203.5 "
        style="fill:none; stroke:#444; stroke-width:1" />
               false
            </g>
            <g>
               <path d="M192.5, 1218.5 L192.5 1248 Q192.5 1252
                196.5 1252
                L203 1252 "
        style="fill:none; stroke:#444; stroke-width:1" />
               <path d="M203, 1249 L211, 1252 L203, 1255 Z" 
        fill="#333" />
            </g>
            <g>
               <path d="M192.5, 1218.5 L192.5 1296.5 Q192.5 1300.5
                196.5 1300.5
                L203 1300.5 "
        style="fill:none; stroke:#444; stroke-width:1" />
               <path d="M203, 1297.5 L211, 1300.5 L203, 1303.5 Z" 
        fill="#333" />
            </g>
            <g>
               <path d="M192.5, 1218.5 L192.5 1345 Q192.5 1349
                196.5 1349
                L203 1349 "
        style="fill:none; stroke:#444; stroke-width:1" />
               <path d="M203, 1346 L211, 1349 L203, 1352 Z" 
        fill="#333" />
            </g>
            <g>
               <path d="M192.5, 1218.5 L192.5 1393.5 Q192.5 1397.5
                196.5 1397.5
                L203 1397.5 "
        style="fill:none; stroke:#444; stroke-width:1" />
               <path d="M203, 1394.5 L211, 1397.5 L203, 1400.5 Z" 
        fill="#333" />
            </g>
            <g>
               <path d="M192.5, 1218.5 L192.5 1442 Q192.5 1446
                196.5 1446
                L203 1446 "
        style="fill:none; stroke:#444; stroke-width:1" />
               <path d="M203, 1443 L211, 1446 L203, 1449 Z" 
        fill="#333" />
            </g>
            <g>
               <path d="M192.5, 1218.5 L192.5 1490.5 Q192.5 1494.5
                196.5 1494.5
                L203 1494.5 "
        style="fill:none; stroke:#444; stroke-width:1" />
               <path d="M203, 1491.5 L211, 1494.5 L203, 1497.5 Z" 
        fill="#333" />
            </g>
            <g>
               <path d="M192.5, 1218.5 L192.5 1539 Q192.5 1543
                196.5 1543
                L203 1543 "
        style="fill:none; stroke:#444; stroke-width:1" />
               <path d="M203, 1540 L211, 1543 L203, 1546 Z" 
        fill="#333" />
            </g>
            <g>
               <path d="M192.5, 1218.5 L192.5 1587.5 Q192.5 1591.5
                196.5 1591.5
                L203 1591.5 "
        style="fill:none; stroke:#444; stroke-width:1" />
               <path d="M203, 1588.5 L211, 1591.5 L203, 1594.5 Z" 
        fill="#333" />
            </g>
            <g>
               <path d="M192.5, 1218.5 L192.5 1636 Q192.5 1640
                196.5 1640
                L203 1640 "
        style="fill:none; stroke:#444; stroke-width:1" />
               <path d="M203, 1637 L211, 1640 L203, 1643 Z" 
        fill="#333" />
            </g>
            <g>
               <path d="M192.5, 1218.5 L192.5 1684.5 Q192.5 1688.5
                196.5 1688.5
                L203 1688.5 "
        style="fill:none; stroke:#444; stroke-width:1" />
               <path d="M203, 1685.5 L211, 1688.5 L203, 1691.5 Z" 
        fill="#333" />
            </g>
            <g>
               <path d="M192.5, 1218.5 L192.5 1733 Q192.5 1737
                196.5 1737
                L203 1737 "
        style="fill:none; stroke:#444; stroke-width:1" />
               <path d="M203, 1734 L211, 1737 L203, 1740 Z" 
        fill="#333" />
            </g>
            <g>
               <path d="M192.5, 1218.5 L192.5 1781.5 Q192.5 1785.5
                196.5 1785.5
                L203 1785.5 "
        style="fill:none; stroke:#444; stroke-width:1" />
               <path d="M203, 1782.5 L211, 1785.5 L203, 1788.5 Z" 
        fill="#333" />
            </g>
            <g>
               <path d="M192.5, 1218.5 L192.5 1830 Q192.5 1834
                196.5 1834
                L203 1834 "
        style="fill:none; stroke:#444; stroke-width:1" />
               <path d="M203, 1831 L211, 1834 L203, 1837 Z" 
        fill="#333" />
            </g>
            <g>
               <path d="M192.5, 1218.5 L192.5 1878.5 Q192.5 1882.5
                196.5 1882.5
                L203 1882.5 "
        style="fill:none; stroke:#444; stroke-width:1" />
               <path d="M203, 1879.5 L211, 1882.5 L203, 1885.5 Z" 
        fill="#333" />
            </g>
            <g>
               <path d="M192.5, 1218.5 L192.5 1927 Q192.5 1931
                196.5 1931
                L203 1931 "
        style="fill:none; stroke:#444; stroke-width:1" />
               <path d="M203, 1928 L211, 1931 L203, 1934 Z" 
        fill="#333" />
            </g>
            <g>
               <path d="M192.5, 1218.5 L192.5 1975.5 Q192.5 1979.5
                196.5 1979.5
                L203 1979.5 "
        style="fill:none; stroke:#444; stroke-width:1" />
               <path d="M203, 1976.5 L211, 1979.5 L203, 1982.5 Z" 
        fill="#333" />
            </g>
            <g>
               <path d="M192.5, 1218.5 L192.5 2024 Q192.5 2028
                196.5 2028
                L203 2028 "
        style="fill:none; stroke:#444; stroke-width:1" />
               <path d="M203, 2025 L211, 2028 L203, 2031 Z" 
        fill="#333" />
            </g>
            <g>
               <path d="M192.5, 1218.5 L192.5 2072.5 Q192.5 2076.5
                196.5 2076.5
                L203 2076.5 "
        style="fill:none; stroke:#444; stroke-width:1" />
               <path d="M203, 2073.5 L211, 2076.5 L203, 2079.5 Z" 
        fill="#333" />
            </g>
            <g>
               <path d="M192.5, 1218.5 L192.5 2121 Q192.5 2125
                196.5 2125
                L203 2125 "
        style="fill:none; stroke:#444; stroke-width:1" />
               <path d="M203, 2122 L211, 2125 L203, 2128 Z" 
        fill="#333" />
            </g>
            <g>
               <path d="M192.5, 1218.5 L192.5 2169.5 Q192.5 2173.5
                196.5 2173.5
                L203 2173.5 "
        style="fill:none; stroke:#444; stroke-width:1" />
               <path d="M203, 2170.5 L211, 2173.5 L203, 2176.5 Z" 
        fill="#333" />
            </g>
            <g>
               <path d="M192.5, 1218.5 L192.5 2218 Q192.5 2222
                196.5 2222
                L203 2222 "
        style="fill:none; stroke:#444; stroke-width:1" />
               <path d="M203, 2219 L211, 2222 L203, 2225 Z" 
        fill="#333" />
            </g>
            <g>
               <path d="M117, 887.5 L117 2266.5 Q117 2270.5
                121 2270.5
                L129 2270.5 "
        style="fill:none; stroke:#444; stroke-width:1" />
               <path d="M129, 2267.5 L137, 2270.5 L129, 2273.5 Z" 
        fill="#333" />
            </g>
            <g>
               <path d="M155.5, 2285.5 L155.5 2315 Q155.5 2319
                159.5 2319
                L174 2319 "
        style="fill:none; stroke:#444; stroke-width:1" />
               false
            </g>
            <g>
               <path d="M192.5, 2334 L192.5 2363.5 Q192.5 2367.5
                196.5 2367.5
                L203 2367.5 "
        style="fill:none; stroke:#444; stroke-width:1" />
               <path d="M203, 2364.5 L211, 2367.5 L203, 2370.5 Z" 
        fill="#333" />
            </g>
            <g>
               <path d="M192.5, 2334 L192.5 2412 Q192.5 2416
                196.5 2416
                L203 2416 "
        style="fill:none; stroke:#444; stroke-width:1" />
               <path d="M203, 2413 L211, 2416 L203, 2419 Z" 
        fill="#333" />
            </g>
            <g>
               <path d="M192.5, 2334 L192.5 2460.5 Q192.5 2464.5
                196.5 2464.5
                L203 2464.5 "
        style="fill:none; stroke:#444; stroke-width:1" />
               <path d="M203, 2461.5 L211, 2464.5 L203, 2467.5 Z" 
        fill="#333" />
            </g>
            <g>
               <path d="M576.4, 2464.5 L670.4 2464.5  Q674.4 2464.5
                674.4 2460.5
                L674.4 815.5 Q674.4 807.5
                670.4 807.5
                L125 807.5  Q117 807.5
                117 811.5
                L117 819.5"
        style="fill:none; stroke:#444; stroke-width:1" />
               <path d="M114, 819.5 L117, 827.5 L120, 819.5 Z" 
        fill="#333" />
            </g>
            <g>
               <path d="M25, 40 L25 2509 Q25 2513
                29 2513
                L42 2513 "
        style="fill:none; stroke:#444; stroke-width:1" />
               <path d="M42, 2510 L50, 2513 L42, 2516 Z" 
        fill="#333" />
            </g>
            <g>
               <path d="M25, 40 L25 2557.5 Q25 2561.5
                29 2561.5
                L42 2561.5 "
        style="fill:none; stroke:#444; stroke-width:1" />
               <path d="M42, 2558.5 L50, 2561.5 L42, 2564.5 Z" 
        fill="#333" />
            </g>
            <g>
               <path d="M25, 40 L25 2606 Q25 2610
                29 2610
                L42 2610 "
        style="fill:none; stroke:#444; stroke-width:1" />
               <path d="M42, 2607 L50, 2610 L42, 2613 Z" 
        fill="#333" />
            </g>
            </svg>